<svg id="Vector_Graphics" data-name="Vector Graphics" xmlns="http://www.w3.org/2000/svg" width="7.06mm" height="9mm" viewBox="0 0 20 25.51"><defs><style>.cls-1{fill:#7fb442;}.cls-1,.cls-2,.cls-3{fill-rule:evenodd;}.cls-2{fill:#630;}.cls-3{fill:#42a748;}</style></defs><title>logo</title><path class="cls-1" d="M5,0c4.05.64,6,2.93,5.4,7.2C6.44,6.49,4.21,4.42,5,0Z"/><path class="cls-2" d="M13.93,4.52c-1,1-3.27.74-3.36,2.65C10.17,6.64,11.6,3.91,13.93,4.52Z"/><path class="cls-3" d="M6.24,5.81c.86-.13,3.46,1.44,4.32,1.44,3.53,0,6.2-1.71,8.17,1.2C22.47,14,17.22,24.94,12.48,25.5c-.79.1-1.38-.69-2.4-.72s-1.69.83-2.64.72C.81,24.8-4.76,7.35,6.24,5.81Z"/></svg>